<svg xmlns="http://www.w3.org/2000/svg" fill="none" viewBox="0 0 24 24" aria-hidden="true">
                            <path fill="currentColor"
                                d="M20 9.502V8.75a2.25 2.25 0 0 0-2.25-2.25h-5.725L9.644 4.52A2.25 2.25 0 0 0 8.205 4H4.25A2.25 2.25 0 0 0 2 6.25l-.004 11.5A2.25 2.25 0 0 0 4.246 20h14.223a1.75 1.75 0 0 0 1.698-1.326l1.75-6.997a1.75 1.75 0 0 0-1.698-2.175zM4.25 5.5h3.955a.75.75 0 0 1 .48.173l2.59 2.154a.75.75 0 0 0 .479.173h5.996a.75.75 0 0 1 .75.75v.752H6.424a2.25 2.25 0 0 0-2.183 1.704l-.744 2.978L3.5 6.25a.75.75 0 0 1 .75-.75m1.446 6.07a.75.75 0 0 1 .728-.568h13.795a.25.25 0 0 1 .243.31l-1.75 6.999a.25.25 0 0 1-.243.189H4.284a.25.25 0 0 1-.242-.31z" />
                        </svg>